<svg xmlns="http://www.w3.org/2000/svg" shape-rendering="geometricPrecision" text-rendering="geometricPrecision" image-rendering="optimizeQuality" fill-rule="evenodd" clip-rule="evenodd" viewBox="0 0 512 488.783"><path fill="#2D2222" fill-rule="nonzero" d="M120.009 270.449l12.051-.014c63.731-.22 80.084-.266 144.202 39.975h52.865l.607.039c8.199.557 15.303 3.465 20.534 7.766 4.12 3.387 7.117 7.671 8.624 12.395 1.539 4.826 1.532 10.064-.369 15.239-2.039 5.543-6.262 11-13.1 15.713-10.245 7.505-22.03 11.037-34.651 12.374-12.143 1.283-25.049.51-38.085-.653-4.146-.202-6.802 1.433-7.954 3.646a6.495 6.495 0 00-.727 2.847 6.68 6.68 0 00.606 2.937c1.092 2.365 3.823 4.231 8.313 4.249l.329.014c3.377.248 7.065-.118 10.654-.465 2.851-.28 5.663-.557 8.494-.56 15.522-.011 29.622-1.483 41.658-5.965 11.593-4.316 21.385-11.501 28.832-23.02l7.983-18.636a4.658 4.658 0 012.235-2.362l80.598-39.96.61-.248c13.809-4.557 26.473-3.164 36.382 1.893 6.5 3.313 11.824 8.221 15.519 14.076 3.709 5.866 5.784 12.71 5.78 19.86-.003 10.114-4.146 20.806-13.653 30.197l-.536.454c-29.243 21.285-58.94 40.726-89.052 58.412-30.024 17.64-60.374 33.481-91.007 47.61-45.933 27.828-91.851 26.888-137.744.007l-59.998-30.928a16.679 16.679 0 01-4.904 11.795l-.529.479c-2.982 2.741-6.951 4.426-11.292 4.426H16.725c-4.585 0-8.76-1.88-11.792-4.905A16.588 16.588 0 010 437.32V268.736c0-4.582 1.883-8.763 4.922-11.802a16.577 16.577 0 0111.803-4.919h86.559a16.68 16.68 0 0111.817 4.905l.475.525c2.752 2.989 4.433 6.961 4.433 11.291v1.713z"/><path fill="#F6CD45" d="M317.148 0c75.35 0 136.432 61.083 136.432 136.432 0 75.35-61.082 136.432-136.432 136.432s-136.432-61.082-136.432-136.432C180.716 61.083 241.798 0 317.148 0z"/><path fill="#D19632" d="M317.148 23.867c62.168 0 112.565 50.398 112.565 112.565 0 62.168-50.397 112.565-112.565 112.565S204.583 198.6 204.583 136.432c0-62.167 50.397-112.565 112.565-112.565z"/><path fill="#DBA47B" fill-rule="nonzero" d="M121.148 279.819v147.578l63.369 32.68c42.858 25.183 85.713 26.094 128.531.092l.568-.312a1027.425 1027.425 0 0090.411-47.27c29.629-17.405 58.983-36.619 88.02-57.738 7.377-7.401 10.604-15.608 10.604-23.26 0-5.338-1.56-10.462-4.348-14.874-2.794-4.429-6.862-8.163-11.852-10.706-7.773-3.965-17.827-5.033-28.966-1.429l-78.68 39.009-7.444 17.374-.365.678c-8.682 13.607-20.115 22.058-33.673 27.104-13.224 4.926-28.381 6.54-44.921 6.554-2.27 0-4.909.262-7.579.525-4.057.393-8.206.801-12.264.486-8.525-.146-13.99-4.348-16.451-9.675a15.946 15.946 0 01-1.45-7.06 15.946 15.946 0 011.79-6.973c2.71-5.195 8.345-9.078 16.679-8.667l.184.018c12.579 1.127 25.006 1.886 36.51.67 11.075-1.171 21.331-4.213 30.084-10.625l.128-.088c5.167-3.54 8.284-7.448 9.695-11.289 1.156-3.149 1.174-6.312.256-9.188-.951-2.983-2.919-5.749-5.653-7.997-3.781-3.107-9.033-5.221-15.204-5.643h-54.188a4.792 4.792 0 01-2.493-.734c-62.813-39.542-78.421-39.485-140.386-39.276l-10.912.036z"/><path fill="#43494C" d="M16.725 259.147h86.559c5.277 0 9.593 4.316 9.593 9.589V437.32c0 5.277-4.316 9.589-9.593 9.589H16.725c-5.277 0-9.593-4.312-9.593-9.589V268.736c0-5.273 4.316-9.589 9.593-9.589z"/><path fill="#34393E" d="M112.877 333.785v103.534c0 5.278-4.316 9.594-9.594 9.594H16.726c-5.277 0-9.594-4.316-9.594-9.594v-21.535l105.745-81.999z"/><path fill="#A87927" fill-rule="nonzero" d="M359.025 121.229c0 5.816-1.054 8.691-3.199 8.691h-26.401v55.68c0 1.315-.914 2.2-2.807 2.706-2.306.481-4.675.73-7.035.73-.295 0-.603-.009-.894-.009-.35 0-.717.017-1.071.017-2.343 0-4.7-.236-6.968-.801-1.816-.455-2.723-1.391-2.723-2.609v-55.668h-26.4c-2.141 0-3.199-2.921-3.199-8.695a21.453 21.453 0 01.779-6.703c.523-1.391 1.332-2.086 2.42-2.086h74.299c1.138 0 1.973.695 2.449 2.111.51 1.872.771 3.803.771 5.742 0 .312-.008.627-.025.936l.004-.042zm-77.498-16.803c-2.141 0-3.199-2.921-3.199-8.738a20.773 20.773 0 01.784-6.703c.51-1.39 1.327-2.086 2.415-2.086h74.299c1.138 0 1.964.704 2.478 2.112a22.279 22.279 0 01.746 6.677c0 5.817-1.062 8.738-3.199 8.738h-74.324z"/><path fill="#FCD553" fill-rule="nonzero" d="M355.944 118.148c0 5.817-1.053 8.692-3.199 8.692h-26.4v55.679c0 1.315-.915 2.201-2.808 2.706-2.305.481-4.674.73-7.035.73-.295 0-.603-.009-.894-.009-.35 0-.716.017-1.07.017-2.344 0-4.7-.236-6.968-.801-1.817-.455-2.724-1.391-2.724-2.609v-55.667h-26.4c-2.141 0-3.199-2.921-3.199-8.696a21.402 21.402 0 01.78-6.702c.522-1.392 1.332-2.087 2.419-2.087h74.299c1.138 0 1.973.695 2.449 2.111.51 1.872.771 3.803.771 5.742 0 .312-.008.628-.025.936l.004-.042zm-77.498-16.802c-2.141 0-3.199-2.922-3.199-8.739a20.804 20.804 0 01.784-6.702c.51-1.391 1.328-2.087 2.415-2.087h74.299c1.138 0 1.964.704 2.479 2.112a22.32 22.32 0 01.762 5.775c0 .304-.008.603-.016.902 0 5.817-1.063 8.739-3.2 8.739h-74.324z"/></svg>